# xmcd CD database file
#
# Track frame offsets:
#	150
#	19057
#	32497
#	54962
#	76367
#
# Disc length: 1314 seconds
#
# Revision: 0
# Processed by: cddbd v1.5.1PL2 Copyright (c) Steve Scherf et al.
# Submitted via: CDex 1.51
#
DISCID=2d052005
DTITLE=ミサイルイノベーション - ミサイルイノベーション
DYEAR=2005
DGENRE=JPop
TTITLE0=ミサイルイノベーション
TTITLE1=Manic Monday
TTITLE2=砂のお城
TTITLE3=モロヘイヤダンディー
TTITLE4=鮮やかな花
EXTD=YEAR: 2005
EXTT0=
EXTT1=
EXTT2=
EXTT3=
EXTT4=
PLAYORDER=
